<svg xmlns="http://www.w3.org/2000/svg" width="18" height="9" viewBox="0 0 18 9">
  <defs>
    <style>
      .cls-1 {
        fill-rule: evenodd;
      }
    </style>
  </defs>
  <path id="_" data-name="" class="cls-1" d="M17.257,4.31L13.4,0.795a0.323,0.323,0,0,0-.352-0.05,0.291,0.291,0,0,0-.191.291v2.25H0.321A0.309,0.309,0,0,0,0,3.607V5.536a0.309,0.309,0,0,0,.321.321H12.857v2.25a0.3,0.3,0,0,0,.191.291,0.313,0.313,0,0,0,.352-0.06l3.857-3.556a0.329,0.329,0,0,0,.1-0.241,0.318,0.318,0,0,0-.1-0.231h0Z"/>
</svg>
